<svg width="20" height="20" viewBox="0 0 20 20" fill="none" xmlns="http://www.w3.org/2000/svg">
<path d="M19.75 18.4V9.32609C19.75 8.47215 19.75 8.04518 19.6407 7.65144C19.5439 7.30264 19.3848 6.97424 19.171 6.68212C18.9297 6.35236 18.5945 6.08779 17.9243 5.55865L13.2243 1.84813C12.1617 1.00925 11.6304 0.589812 11.0424 0.428777C10.5237 0.28671 9.97631 0.28671 9.45757 0.428777C8.86957 0.589812 8.33828 1.00925 7.27571 1.84812L2.57571 5.55865C1.90546 6.08779 1.57034 6.35236 1.32902 6.68212C1.11525 6.97424 0.956105 7.30264 0.85929 7.65144C0.75 8.04518 0.75 8.47215 0.75 9.32609V18.4C0.75 18.9601 0.75 19.2401 0.858993 19.454C0.954867 19.6422 1.10785 19.7951 1.29601 19.891C1.50992 20 1.78995 20 2.35 20H5.15C5.71005 20 5.99008 20 6.20399 19.891C6.39215 19.7951 6.54513 19.6422 6.64101 19.454C6.75 19.2401 6.75 18.9601 6.75 18.4V13.1C6.75 12.5399 6.75 12.2599 6.85899 12.046C6.95487 11.8578 7.10785 11.7049 7.29601 11.609C7.50992 11.5 7.78995 11.5 8.35 11.5H12.15C12.7101 11.5 12.9901 11.5 13.204 11.609C13.3922 11.7049 13.5451 11.8578 13.641 12.046C13.75 12.2599 13.75 12.5399 13.75 13.1V18.4C13.75 18.9601 13.75 19.2401 13.859 19.454C13.9549 19.6422 14.1078 19.7951 14.296 19.891C14.5099 20 14.7899 20 15.35 20H18.15C18.7101 20 18.9901 20 19.204 19.891C19.3922 19.7951 19.5451 19.6422 19.641 19.454C19.75 19.2401 19.75 18.9601 19.75 18.4Z" fill="#ADADAD"/>
</svg>
